<?xml version="1.0" encoding="UTF-8" standalone="no"?>
<!-- Created with Inkscape (http://www.inkscape.org/) -->

<svg
   xmlns:dc="http://purl.org/dc/elements/1.1/"
   xmlns:cc="http://creativecommons.org/ns#"
   xmlns:rdf="http://www.w3.org/1999/02/22-rdf-syntax-ns#"
   xmlns:svg="http://www.w3.org/2000/svg"
   xmlns="http://www.w3.org/2000/svg"
   xmlns:sodipodi="http://sodipodi.sourceforge.net/DTD/sodipodi-0.dtd"
   xmlns:inkscape="http://www.inkscape.org/namespaces/inkscape"
   width="880.63477"
   height="463.00223"
   id="svg2816"
   version="1.1"
   inkscape:version="0.48.4 r9939"
   sodipodi:docname="1.svg"
   inkscape:export-filename="/home/vojta/8.1.png"
   inkscape:export-xdpi="62.281441"
   inkscape:export-ydpi="62.281441">
  <title
     id="title3780">Violin bridge blank</title>
  <defs
     id="defs2818">
    <inkscape:perspective
       sodipodi:type="inkscape:persp3d"
       inkscape:vp_x="0 : 526.18109 : 1"
       inkscape:vp_y="0 : 1000 : 0"
       inkscape:vp_z="744.09448 : 526.18109 : 1"
       inkscape:persp3d-origin="372.04724 : 350.78739 : 1"
       id="perspective2824" />
    <inkscape:perspective
       id="perspective4288"
       inkscape:persp3d-origin="0.5 : 0.33333333 : 1"
       inkscape:vp_z="1 : 0.5 : 1"
       inkscape:vp_y="0 : 1000 : 0"
       inkscape:vp_x="0 : 0.5 : 1"
       sodipodi:type="inkscape:persp3d" />
    <inkscape:perspective
       id="perspective2929"
       inkscape:persp3d-origin="0.5 : 0.33333333 : 1"
       inkscape:vp_z="1 : 0.5 : 1"
       inkscape:vp_y="0 : 1000 : 0"
       inkscape:vp_x="0 : 0.5 : 1"
       sodipodi:type="inkscape:persp3d" />
  </defs>
  <sodipodi:namedview
     id="base"
     pagecolor="#ffffff"
     bordercolor="#666666"
     borderopacity="1.0"
     inkscape:pageopacity="1"
     inkscape:pageshadow="2"
     inkscape:zoom="0.7512104"
     inkscape:cx="552.8754"
     inkscape:cy="8.1200079"
     inkscape:document-units="mm"
     inkscape:current-layer="layer1"
     showgrid="false"
     inkscape:window-width="1280"
     inkscape:window-height="975"
     inkscape:window-x="-4"
     inkscape:window-y="-4"
     inkscape:window-maximized="1"
     units="cm"
     showguides="true"
     inkscape:guide-bbox="true"
     fit-margin-top="0"
     fit-margin-left="0"
     fit-margin-right="0"
     fit-margin-bottom="0"
     showborder="false"
     inkscape:showpageshadow="false" />
  <metadata
     id="metadata2821">
    <rdf:RDF>
      <cc:Work
         rdf:about="">
        <dc:format>image/svg+xml</dc:format>
        <dc:type
           rdf:resource="http://purl.org/dc/dcmitype/StillImage" />
        <dc:title>Violin bridge blank</dc:title>
        <dc:date>7.2.2013</dc:date>
        <dc:creator>
          <cc:Agent>
            <dc:title>Vojtech Blahout</dc:title>
          </cc:Agent>
        </dc:creator>
      </cc:Work>
    </rdf:RDF>
  </metadata>
  <g
     inkscape:groupmode="layer"
     id="layer2"
     inkscape:label="image"
     style="display:inline"
     transform="translate(1240.2159,811.48585)" />
  <g
     inkscape:groupmode="layer"
     id="layer3"
     inkscape:label="top"
     style="display:inline"
     transform="translate(1240.2159,811.48585)" />
  <g
     inkscape:label="Layer 1"
     inkscape:groupmode="layer"
     id="layer1"
     transform="translate(1240.2159,113.45561)"
     style="display:inline">
    <g
       transform="matrix(0.33503423,0,0,0.33503423,-824.31726,115.69658)"
       style="fill:none;stroke:#000000;stroke-width:5.96953917;stroke-miterlimit:4;stroke-opacity:1;stroke-dasharray:none;display:inline"
       id="g3734">
      <g
         transform="matrix(0.99998629,0.00523596,-0.00523596,0.99998629,-21.550154,-17.41804)"
         id="g3717"
         style="fill:none;stroke:#000000;stroke-width:5.96953917;stroke-miterlimit:4;stroke-opacity:1;stroke-dasharray:none">
        <path
           style="fill:none;stroke:#000000;stroke-width:5.96953917;stroke-linecap:round;stroke-linejoin:round;stroke-miterlimit:4;stroke-opacity:1;stroke-dasharray:none;stroke-dashoffset:0"
           d="m 1357.3579,2298.3388 0.9487,-82.3513 -87.2331,-0.5786 c -77.0603,-10.0065 -67.6815,-117.7865 1.091,-118.942 251.6612,-13.0698 504.89,-17.3368 761.6251,-1.9141 84.1117,12.1083 52.0369,125.0456 -7.2576,119.7655 l -90.103,-0.512 0.6405,85.0667 461.7182,50.212 7.3287,-64.1673 c -178.8339,40.5131 -137.1267,-227.076 15.4402,-145.3388 l 3.5576,-40.2186 -42.5255,-5.4752 c 78.0588,-18.5546 62.7605,-115.0097 8.0402,-120.4109 l -278.5388,-2.9825 c -85.3761,-2.9463 -127.3979,-85.672 -124.9915,-138.9038 7.8634,-54.7536 74.7974,-114.104 179.5418,-118.9642 71.9883,-2.1028 169.3452,43.9354 176.8855,106.0996 -3.5517,75.5292 -126.3811,116.7864 -224.1071,77.4102 l 0.3558,40.5969 322.8906,1.0684 83.9127,-796.2859 C 1939.2439,921.38607 1353.9868,926.09862 763.31647,1132.6769 l 83.91266,801.4319 324.21877,3.3163 0.048,-39.729 c -59.4047,28.5861 -199.12298,9.7287 -216.63606,-70.2879 -10.73106,-40.5528 40.25757,-114.195 173.16176,-116.3823 77.2355,2.392 176.1451,60.107 180.6565,135.6124 -3.9374,57.116 -48.3328,121.2524 -121.9793,124.8179 l -280.62595,1.7805 c -60.71532,11.3618 -64.57256,89.6159 -1.39933,117.5843 l -40.46213,3.8727 2.9647,37.6145 c 23.1317,-10.1362 42.93713,-12.631 59.9736,-9.6396 118.87781,20.8733 75.53661,200.9833 -42.84954,158.5953 l 7.12713,66.3966 465.93062,-49.3217 z"
           id="path3709"
           transform="translate(-1982.81,-1638.8315)"
           sodipodi:nodetypes="ccccccccccccccccccccccccccccccccccsccc"
           inkscape:connector-curvature="0" />
        <path
           style="fill:none;stroke:#000000;stroke-width:5.96953917;stroke-linecap:round;stroke-linejoin:round;stroke-miterlimit:4;stroke-opacity:1;stroke-dasharray:none;stroke-dashoffset:0"
           d="m 1563.2745,1587.4108 c 50.9544,35.8407 110.2244,38.6182 175.4565,-4.69 -68.9877,-63.4919 -12.0986,-144.9288 50.075,-148.0095 62.1735,-3.0807 106.5868,61.168 78.1212,121.0343 -37.9756,81.4685 -269.3705,216.8242 -434.2304,17.7841 -41.7151,-58.6703 4.682,-127.5357 68.5902,-130.8389 64.0102,-3.3086 118.0187,77.3862 61.9875,144.72 z"
           id="path3711"
           transform="translate(-1982.81,-1638.8315)"
           sodipodi:nodetypes="cczcczc"
           inkscape:connector-curvature="0" />
      </g>
    </g>
    <g
       id="g3782"
       transform="matrix(-0.33503423,0,0.00969719,0.33503423,7.181636,-121.9518)"
       style="fill:none;stroke:#000000;stroke-width:5.96953917;stroke-miterlimit:4;stroke-opacity:1;stroke-dasharray:none">
      <path
         sodipodi:nodetypes="ccccc"
         transform="translate(-1982.81,-940.80129)"
         id="path3750"
         d="m 3233.2361,2344.4444 133.7195,0 -91.6209,-1366.7836 -41.7429,0 -0.3557,1366.7836 z"
         style="fill:none;stroke:#000000;stroke-width:5.96953917;stroke-linecap:round;stroke-linejoin:round;stroke-miterlimit:4;stroke-opacity:1;stroke-dasharray:none;stroke-dashoffset:0"
         inkscape:connector-curvature="0" />
      <path
         transform="translate(-1982.81,-940.80129)"
         id="path3752"
         d="m 3233.0427,2269.9939 128.1627,0"
         style="fill:none;stroke:#000000;stroke-width:5.96953917;stroke-linecap:round;stroke-linejoin:round;stroke-miterlimit:4;stroke-opacity:1;stroke-dasharray:none;stroke-dashoffset:0"
         inkscape:connector-curvature="0" />
      <path
         transform="translate(-1982.81,-940.80129)"
         id="path3754"
         d="m 3232.6738,2124.3531 117.2616,0"
         style="fill:none;stroke:#000000;stroke-width:5.96953917;stroke-linecap:round;stroke-linejoin:round;stroke-miterlimit:4;stroke-opacity:1;stroke-dasharray:none;stroke-dashoffset:0"
         inkscape:connector-curvature="0" />
      <path
         transform="translate(-1982.81,-940.80129)"
         id="path3756"
         d="m 3233.6465,2073.0153 113.9075,0"
         style="fill:none;stroke:#000000;stroke-width:5.96953917;stroke-linecap:round;stroke-linejoin:round;stroke-miterlimit:4;stroke-opacity:1;stroke-dasharray:none;stroke-dashoffset:0"
         inkscape:connector-curvature="0" />
      <path
         transform="translate(-1982.81,-940.80129)"
         id="path3758"
         d="m 3233.3781,2081.9545 114.5448,0"
         style="fill:none;stroke:#000000;stroke-width:5.96953917;stroke-linecap:round;stroke-linejoin:round;stroke-miterlimit:4;stroke-opacity:1;stroke-dasharray:none;stroke-dashoffset:0"
         inkscape:connector-curvature="0" />
      <path
         transform="translate(-1982.81,-940.80129)"
         id="path3760"
         d="m 3233.6465,1956.81 106.9308,0"
         style="fill:none;stroke:#000000;stroke-width:5.96953917;stroke-linecap:round;stroke-linejoin:round;stroke-miterlimit:4;stroke-opacity:1;stroke-dasharray:none;stroke-dashoffset:0"
         inkscape:connector-curvature="0" />
      <path
         transform="translate(-1982.81,-940.80129)"
         id="path3762"
         d="m 3233.5458,1922.312 104.7507,0"
         style="fill:none;stroke:#000000;stroke-width:5.96953917;stroke-linecap:round;stroke-linejoin:round;stroke-miterlimit:4;stroke-opacity:1;stroke-dasharray:none;stroke-dashoffset:0"
         inkscape:connector-curvature="0" />
      <path
         transform="translate(-1982.81,-940.80129)"
         id="path3764"
         d="m 3234.3508,1127.7854 49.843,0"
         style="fill:none;stroke:#000000;stroke-width:5.96953917;stroke-linecap:round;stroke-linejoin:round;stroke-miterlimit:4;stroke-opacity:1;stroke-dasharray:none;stroke-dashoffset:0"
         inkscape:connector-curvature="0" />
      <path
         transform="translate(-1982.81,-940.80129)"
         id="path3766"
         d="m 3233.244,1421.8087 70.4375,0"
         style="fill:none;stroke:#000000;stroke-width:5.96953917;stroke-linecap:round;stroke-linejoin:round;stroke-miterlimit:4;stroke-opacity:1;stroke-dasharray:none;stroke-dashoffset:0"
         inkscape:connector-curvature="0" />
      <path
         transform="translate(-1982.81,-940.80129)"
         id="path3768"
         d="m 3233.9819,1568.3938 79.4937,0"
         style="fill:none;stroke:#000000;stroke-width:5.96953917;stroke-linecap:round;stroke-linejoin:round;stroke-miterlimit:4;stroke-opacity:1;stroke-dasharray:none;stroke-dashoffset:0"
         inkscape:connector-curvature="0" />
      <path
         transform="translate(-1982.81,-940.80129)"
         id="path3770"
         d="m 3233.0092,1605.4414 83.4181,0"
         style="fill:none;stroke:#000000;stroke-width:5.96953917;stroke-linecap:round;stroke-linejoin:round;stroke-miterlimit:4;stroke-opacity:1;stroke-dasharray:none;stroke-dashoffset:0"
         inkscape:connector-curvature="0" />
      <path
         transform="translate(-1982.81,-940.80129)"
         id="path3772"
         d="m 3234.3508,1666.1166 85.6655,0"
         style="fill:none;stroke:#000000;stroke-width:5.96953917;stroke-linecap:round;stroke-linejoin:round;stroke-miterlimit:4;stroke-opacity:1;stroke-dasharray:none;stroke-dashoffset:0"
         inkscape:connector-curvature="0" />
      <path
         transform="translate(-1982.81,-940.80129)"
         id="path3774"
         d="m 3234.1831,1702.3773 88.8519,0"
         style="fill:none;stroke:#000000;stroke-width:5.96953917;stroke-linecap:round;stroke-linejoin:round;stroke-miterlimit:4;stroke-opacity:1;stroke-dasharray:none;stroke-dashoffset:0"
         inkscape:connector-curvature="0" />
      <path
         transform="translate(-1982.81,-940.80129)"
         id="path3776"
         d="m 3233.6129,1887.6474 101.0275,0"
         style="fill:none;stroke:#000000;stroke-width:5.96953917;stroke-linecap:round;stroke-linejoin:round;stroke-miterlimit:4;stroke-opacity:1;stroke-dasharray:none;stroke-dashoffset:0"
         inkscape:connector-curvature="0" />
      <path
         transform="translate(-1982.81,-940.80129)"
         id="path3778"
         d="m 3233.9483,1899.3251 102.5034,0"
         style="fill:none;stroke:#000000;stroke-width:5.96953917;stroke-linecap:round;stroke-linejoin:round;stroke-miterlimit:4;stroke-opacity:1;stroke-dasharray:none;stroke-dashoffset:0"
         inkscape:connector-curvature="0" />
      <path
         transform="translate(-1982.81,-940.80129)"
         id="path3780"
         d="m 3233.5794,2201.11 122.1923,0"
         style="fill:none;stroke:#000000;stroke-width:5.96953917;stroke-linecap:round;stroke-linejoin:round;stroke-miterlimit:4;stroke-opacity:1;stroke-dasharray:none;stroke-dashoffset:0"
         inkscape:connector-curvature="0" />
    </g>
  </g>
</svg>
