<?xml version="1.0" encoding="UTF-8" standalone="no"?>
<!-- Created with Inkscape (http://www.inkscape.org/) -->

<svg
   xmlns:dc="http://purl.org/dc/elements/1.1/"
   xmlns:cc="http://creativecommons.org/ns#"
   xmlns:rdf="http://www.w3.org/1999/02/22-rdf-syntax-ns#"
   xmlns:svg="http://www.w3.org/2000/svg"
   xmlns="http://www.w3.org/2000/svg"
   xmlns:sodipodi="http://sodipodi.sourceforge.net/DTD/sodipodi-0.dtd"
   xmlns:inkscape="http://www.inkscape.org/namespaces/inkscape"
   width="854.69458"
   height="186.72873"
   id="svg4779"
   version="1.1"
   inkscape:version="0.48.4 r9939"
   sodipodi:docname="3.svg">
  <title
     id="title58905">Violin neck and scroll template</title>
  <defs
     id="defs4781" />
  <sodipodi:namedview
     id="base"
     pagecolor="#ffffff"
     bordercolor="#000000"
     borderopacity="1.0"
     inkscape:pageopacity="1.0"
     inkscape:pageshadow="0"
     inkscape:zoom="3.8466609"
     inkscape:cx="312.51358"
     inkscape:cy="90.210568"
     inkscape:document-units="mm"
     inkscape:current-layer="g3978"
     showgrid="false"
     inkscape:showpageshadow="false"
     showborder="false"
     fit-margin-top="0"
     fit-margin-left="0"
     fit-margin-right="0"
     fit-margin-bottom="0"
     inkscape:window-width="1920"
     inkscape:window-height="1018"
     inkscape:window-x="-8"
     inkscape:window-y="-8"
     inkscape:window-maximized="1"
     units="mm" />
  <metadata
     id="metadata4784">
    <rdf:RDF>
      <cc:Work
         rdf:about="">
        <dc:format>image/svg+xml</dc:format>
        <dc:type
           rdf:resource="http://purl.org/dc/dcmitype/StillImage" />
        <dc:title>Violin neck and scroll template</dc:title>
        <dc:creator>
          <cc:Agent>
            <dc:title>Vojtěch Blahout</dc:title>
          </cc:Agent>
        </dc:creator>
        <dc:date>25.10.2012</dc:date>
        <cc:license
           rdf:resource="" />
      </cc:Work>
    </rdf:RDF>
  </metadata>
  <g
     inkscape:label="Layer 1"
     inkscape:groupmode="layer"
     id="layer1"
     transform="translate(1739.4444,1556.3594)">
    <g
       transform="matrix(0.99999999,5.9640204e-5,-5.9640204e-5,0.99999999,-344.37908,-1346.4296)"
       id="g9076"
       style="stroke:#ff0000;stroke-opacity:1;display:inline" />
    <g
       id="g3978"
       transform="matrix(0,-1,1,0,248.24914,-2918.0146)">
      <g
         id="g3516">
        <g
           id="g3068">
          <path
             sodipodi:nodetypes="cc"
             id="path56937"
             d="m -1362.1425,-1613.9185 -0.029,480.3772"
             style="fill:none;stroke:#000000;stroke-width:1;stroke-linecap:round;stroke-linejoin:round;stroke-miterlimit:4;stroke-opacity:1;stroke-dasharray:none;stroke-dashoffset:0;display:inline"
             inkscape:connector-curvature="0" />
          <path
             id="path56939"
             d="m -1470.7882,-1613.3187 -2.0834,-1.7701 c 22.2856,-41.3415 18.5821,-86.2449 -5.2301,-122.1353 -11.2417,-16.9438 -23.8431,-34.0438 -37.3801,-55.1993 -12.3517,-19.3031 -20.4889,-36.6383 -25.5395,-51.1139 -11.6741,-33.4592 -8.4584,-71.5312 9.8204,-99.701 15.7529,-24.277 41.8417,-41.2195 69.5264,-43.5464 8.7292,-0.7337 16.9694,-0.4832 24.6293,0.5804 14.9216,2.0719 27.641,7.2295 37.4832,14.2083 26.7667,18.9793 34.2842,46.555 30.2242,70.429 -5.0675,29.7975 -30.4717,54.4413 -65.6307,49.0804 -20.6179,-3.1437 -34.5831,-16.1301 -40.9576,-31.5538"
             style="fill:none;stroke:#000000;stroke-width:1;stroke-linecap:round;stroke-linejoin:round;stroke-miterlimit:4;stroke-opacity:1;stroke-dasharray:none;stroke-dashoffset:0;display:inline"
             inkscape:connector-curvature="0" />
          <path
             inkscape:connector-curvature="0"
             style="fill:none;stroke:#000000;stroke-width:1;stroke-linecap:round;stroke-linejoin:round;stroke-miterlimit:4;stroke-opacity:1;stroke-dasharray:none;stroke-dashoffset:0;display:inline"
             d="m -1475.8671,-1884.0737 c 0.4486,1.1374 -2.4043,-3.4978 -4.7912,-2.4784 -1.7451,1.9487 -4.384,6.6588 -2.8693,13.5087 1.9077,8.6269 18.7766,23.4386 28.9421,33.5232 14.1251,14.0124 28.3551,28.6051 41.2625,44.169 21.469,25.8873 33.6478,51.7582 41.0431,81.8272 6.3611,25.8638 9.2341,53.705 9.991,81.5986 l 0.1367,17.8576"
             id="path56945"
             sodipodi:nodetypes="ccsssscc" />
          <path
             inkscape:connector-curvature="0"
             style="fill:none;stroke:#000000;stroke-width:1;stroke-linecap:round;stroke-linejoin:round;stroke-miterlimit:4;stroke-opacity:1;stroke-dasharray:none;stroke-dashoffset:0;display:inline"
             d="m -1362.1543,-1133.5078 -171.2857,-14.9887 8.4841,-102.2116 c 47.2326,2.5894 100.3077,18.9634 97.0114,-47.1822 l 1.9807,-271.4178 c 0.2433,-39.5827 -23.3147,-44.2298 -44.3526,-44.0008"
             id="path56947"
             sodipodi:nodetypes="cccccc" />
          <path
             sodipodi:type="arc"
             style="fill:none;stroke:#000000;stroke-width:1;stroke-miterlimit:4;stroke-opacity:1;stroke-dasharray:none;stroke-dashoffset:0;display:inline"
             id="path56957"
             sodipodi:cx="98.5"
             sodipodi:cy="370.83008"
             sodipodi:rx="2"
             sodipodi:ry="2"
             d="m 100.5,370.83008 c 0,1.10457 -0.895431,2 -2,2 -1.104569,0 -2,-0.89543 -2,-2 0,-1.10457 0.895431,-2 2,-2 1.104569,0 2,0.89543 2,2 z"
             transform="translate(-1468.9498,-1984.2142)" />
          <path
             transform="translate(-1503.6777,-2043.2506)"
             d="m 100.5,370.83008 a 2,2 0 1 1 -4,0 2,2 0 1 1 4,0 z"
             sodipodi:ry="2"
             sodipodi:rx="2"
             sodipodi:cy="370.83008"
             sodipodi:cx="98.5"
             id="path56959"
             style="fill:none;stroke:#000000;stroke-width:1;stroke-miterlimit:4;stroke-opacity:1;stroke-dasharray:none;stroke-dashoffset:0;display:inline"
             sodipodi:type="arc" />
          <path
             sodipodi:type="arc"
             style="fill:none;stroke:#000000;stroke-width:1;stroke-miterlimit:4;stroke-opacity:1;stroke-dasharray:none;stroke-dashoffset:0;display:inline"
             id="path56961"
             sodipodi:cx="98.5"
             sodipodi:cy="370.83008"
             sodipodi:rx="2"
             sodipodi:ry="2"
             d="m 100.5,370.83008 a 2,2 0 1 1 -4,0 2,2 0 1 1 4,0 z"
             transform="translate(-1517.0781,-2091.105)" />
          <path
             transform="translate(-1558.9636,-2154.9907)"
             d="m 100.5,370.83008 a 2,2 0 1 1 -4,0 2,2 0 1 1 4,0 z"
             sodipodi:ry="2"
             sodipodi:rx="2"
             sodipodi:cy="370.83008"
             sodipodi:cx="98.5"
             id="path56963"
             style="fill:none;stroke:#000000;stroke-width:1;stroke-miterlimit:4;stroke-opacity:1;stroke-dasharray:none;stroke-dashoffset:0;display:inline"
             sodipodi:type="arc" />
          <path
             sodipodi:type="arc"
             style="fill:none;stroke:#000000;stroke-width:1;stroke-miterlimit:4;stroke-opacity:1;stroke-dasharray:none;stroke-dashoffset:0;display:inline"
             id="path56965"
             sodipodi:cx="98.5"
             sodipodi:cy="370.83008"
             sodipodi:rx="2"
             sodipodi:ry="2"
             d="m 100.5,370.83008 a 2,2 0 1 1 -4,0 2,2 0 1 1 4,0 z"
             transform="translate(-1587.078,-2195.9715)" />
          <rect
             style="fill:none;stroke:none;display:inline"
             width="5.000298"
             height="4.999702"
             x="-1481.0107"
             y="-1894.3196"
             id="rect56967"
             transform="matrix(1,5.9640204e-5,-5.9640204e-5,1,0,0)" />
          <rect
             style="fill:none;stroke:none;display:inline"
             width="5.000298"
             height="4.999702"
             x="-1442.1528"
             y="-1914.9999"
             id="rect56971"
             transform="matrix(1,5.9640204e-5,-5.9640204e-5,1,0,0)" />
          <rect
             style="fill:none;stroke:none;display:inline"
             width="5.000298"
             height="4.999702"
             x="-1482.4312"
             y="-1903.9213"
             id="rect56973"
             transform="matrix(1,5.9640204e-5,-5.9640204e-5,1,0,0)" />
          <rect
             style="fill:none;stroke:none;display:inline"
             width="5.000298"
             height="4.999702"
             x="-1481.8608"
             y="-1913.7827"
             id="rect56975"
             transform="matrix(1,5.9640204e-5,-5.9640204e-5,1,0,0)" />
          <rect
             style="fill:none;stroke:none;display:inline"
             width="5.000298"
             height="4.999702"
             x="-1479.1615"
             y="-1923.2814"
             id="rect56977"
             transform="matrix(1,5.9640204e-5,-5.9640204e-5,1,0,0)" />
          <rect
             style="fill:none;stroke:none;display:inline"
             width="5.000298"
             height="4.999702"
             x="-1474.4612"
             y="-1931.969"
             id="rect56979"
             transform="matrix(1,5.9640204e-5,-5.9640204e-5,1,0,0)" />
          <rect
             style="fill:none;stroke:none;display:inline"
             width="5.000298"
             height="4.999702"
             x="-1468.0864"
             y="-1939.515"
             id="rect56981"
             transform="matrix(1,5.9640204e-5,-5.9640204e-5,1,0,0)" />
          <rect
             style="fill:none;stroke:none;display:inline"
             width="5.000298"
             height="4.999702"
             x="-1460.2874"
             y="-1945.5759"
             id="rect56983"
             transform="matrix(1,5.9640204e-5,-5.9640204e-5,1,0,0)" />
          <rect
             style="fill:none;stroke:none;display:inline"
             width="5.000298"
             height="4.999702"
             x="-1451.3689"
             y="-1949.8146"
             id="rect56985"
             transform="matrix(1,5.9640204e-5,-5.9640204e-5,1,0,0)" />
          <rect
             style="fill:none;stroke:none;display:inline"
             width="5.000298"
             height="4.999702"
             x="-1441.7273"
             y="-1951.9387"
             id="rect56987"
             transform="matrix(1,5.9640204e-5,-5.9640204e-5,1,0,0)" />
          <rect
             style="fill:none;stroke:none;display:inline"
             width="5.000298"
             height="4.999702"
             x="-1431.854"
             y="-1951.7941"
             id="rect56989"
             transform="matrix(1,5.9640204e-5,-5.9640204e-5,1,0,0)" />
          <rect
             style="fill:none;stroke:none;display:inline"
             width="5.000298"
             height="4.999702"
             x="-1422.2806"
             y="-1949.3915"
             id="rect56991"
             transform="matrix(1,5.9640204e-5,-5.9640204e-5,1,0,0)" />
          <rect
             style="fill:none;stroke:none;display:inline"
             width="5.000298"
             height="4.999702"
             x="-1413.6448"
             y="-1944.6232"
             id="rect56993"
             transform="matrix(1,5.9640204e-5,-5.9640204e-5,1,0,0)" />
          <rect
             style="fill:none;stroke:none;display:inline"
             width="5.000298"
             height="4.999702"
             x="-1406.5636"
             y="-1937.7518"
             id="rect56995"
             transform="matrix(1,5.9640204e-5,-5.9640204e-5,1,0,0)" />
          <rect
             style="fill:none;stroke:none;display:inline"
             width="5.000298"
             height="4.999702"
             x="-1401.4874"
             y="-1929.2878"
             id="rect56997"
             transform="matrix(1,5.9640204e-5,-5.9640204e-5,1,0,0)" />
          <rect
             style="fill:none;stroke:none;display:inline"
             width="5.000298"
             height="4.999702"
             x="-1398.6709"
             y="-1919.8284"
             id="rect56999"
             transform="matrix(1,5.9640204e-5,-5.9640204e-5,1,0,0)" />
          <rect
             style="fill:none;stroke:none;display:inline"
             width="5.000298"
             height="4.999702"
             x="-1398.4141"
             y="-1909.9658"
             id="rect57001"
             transform="matrix(1,5.9640204e-5,-5.9640204e-5,1,0,0)" />
          <rect
             style="fill:none;stroke:none;display:inline"
             width="5.000298"
             height="4.999702"
             x="-1400.9911"
             y="-1900.4529"
             id="rect57003"
             transform="matrix(1,5.9640204e-5,-5.9640204e-5,1,0,0)" />
          <rect
             style="fill:none;stroke:none;display:inline"
             width="5.000298"
             height="4.999702"
             x="-1406.2594"
             y="-1892.1165"
             id="rect57005"
             transform="matrix(1,5.9640204e-5,-5.9640204e-5,1,0,0)" />
          <rect
             style="fill:none;stroke:none;display:inline"
             width="5.000298"
             height="4.999702"
             x="-1413.7231"
             y="-1885.6746"
             id="rect57007"
             transform="matrix(1,5.9640204e-5,-5.9640204e-5,1,0,0)" />
          <rect
             style="fill:none;stroke:none;display:inline"
             width="5.000298"
             height="4.999702"
             x="-1422.8108"
             y="-1881.8768"
             id="rect57009"
             transform="matrix(1,5.9640204e-5,-5.9640204e-5,1,0,0)" />
          <rect
             style="fill:none;stroke:none;display:inline"
             width="5.000298"
             height="4.999702"
             x="-1432.6421"
             y="-1881.3535"
             id="rect57011"
             transform="matrix(1,5.9640204e-5,-5.9640204e-5,1,0,0)" />
          <rect
             style="fill:none;stroke:none;display:inline"
             width="5.000298"
             height="4.999702"
             x="-1442.0367"
             y="-1884.2826"
             id="rect57013"
             transform="matrix(1,5.9640204e-5,-5.9640204e-5,1,0,0)" />
          <rect
             style="fill:none;stroke:none;display:inline"
             width="5.000298"
             height="4.999702"
             x="-1449.6694"
             y="-1890.4783"
             id="rect57015"
             transform="matrix(1,5.9640204e-5,-5.9640204e-5,1,0,0)" />
          <rect
             style="fill:none;stroke:none;display:inline"
             width="5.000298"
             height="4.999702"
             x="-1454.1892"
             y="-1899.1974"
             id="rect57017"
             transform="matrix(1,5.9640204e-5,-5.9640204e-5,1,0,0)" />
          <rect
             style="fill:none;stroke:none;display:inline"
             width="5.000298"
             height="4.999702"
             x="-1454.6749"
             y="-1909.0081"
             id="rect57019"
             transform="matrix(1,5.9640204e-5,-5.9640204e-5,1,0,0)" />
          <rect
             style="fill:none;stroke:none;display:inline"
             width="5.000298"
             height="4.999702"
             x="-1450.916"
             y="-1918.0609"
             id="rect57021"
             transform="matrix(1,5.9640204e-5,-5.9640204e-5,1,0,0)" />
          <rect
             style="fill:none;stroke:none;display:inline"
             width="5.000298"
             height="4.999702"
             x="-1443.519"
             y="-1924.5055"
             id="rect57023"
             transform="matrix(1,5.9640204e-5,-5.9640204e-5,1,0,0)" />
          <rect
             style="fill:none;stroke:none;display:inline"
             width="5.000298"
             height="4.999702"
             x="-1434.0414"
             y="-1927.042"
             id="rect57025"
             transform="matrix(1,5.9640204e-5,-5.9640204e-5,1,0,0)" />
          <rect
             style="fill:none;stroke:none;display:inline"
             width="5.000298"
             height="4.999702"
             x="-1424.4316"
             y="-1925.1615"
             id="rect57027"
             transform="matrix(1,5.9640204e-5,-5.9640204e-5,1,0,0)" />
          <rect
             style="fill:none;stroke:none;display:inline"
             width="5.000298"
             height="4.999702"
             x="-1417.6306"
             y="-1918.2284"
             id="rect57029"
             transform="matrix(1,5.9640204e-5,-5.9640204e-5,1,0,0)" />
          <rect
             style="fill:none;stroke:none;display:inline"
             width="5.000298"
             height="4.999702"
             x="-1416.1947"
             y="-1908.5773"
             id="rect57031"
             transform="matrix(1,5.9640204e-5,-5.9640204e-5,1,0,0)" />
          <rect
             style="fill:none;stroke:none;display:inline"
             width="5.000298"
             height="4.999702"
             x="-1420.2051"
             y="-1899.701"
             id="rect57033"
             transform="matrix(1,5.9640204e-5,-5.9640204e-5,1,0,0)" />
          <rect
             style="fill:none;stroke:none;display:inline"
             width="5.000298"
             height="4.999702"
             x="-1428.8875"
             y="-1895.4441"
             id="rect57035"
             transform="matrix(1,5.9640204e-5,-5.9640204e-5,1,0,0)" />
          <rect
             style="fill:none;stroke:none;display:inline"
             width="5.000298"
             height="4.999702"
             x="-1438.4138"
             y="-1897.4587"
             id="rect57037"
             transform="matrix(1,5.9640204e-5,-5.9640204e-5,1,0,0)" />
          <rect
             style="fill:none;stroke:none;display:inline"
             width="5.000298"
             height="4.999702"
             x="-1443.9117"
             y="-1905.3442"
             id="rect57039"
             transform="matrix(1,5.9640204e-5,-5.9640204e-5,1,0,0)" />
          <path
             transform="translate(-1577.7468,-2282.2148)"
             d="m 100.5,370.83008 c 0,1.10457 -0.895431,2 -2,2 -1.104569,0 -2,-0.89543 -2,-2 0,-1.10457 0.895431,-2 2,-2 1.104569,0 2,0.89543 2,2 z"
             sodipodi:ry="2"
             sodipodi:rx="2"
             sodipodi:cy="370.83008"
             sodipodi:cx="98.5"
             id="path57041"
             style="fill:none;stroke:#000000;stroke-width:1;stroke-miterlimit:4;stroke-opacity:1;stroke-dasharray:none;stroke-dashoffset:0;display:inline"
             sodipodi:type="arc" />
          <path
             transform="translate(-1538.0387,-2283.4296)"
             d="m 100.5,370.83008 c 0,1.10457 -0.895431,2 -2,2 -1.104569,0 -2,-0.89543 -2,-2 0,-1.10457 0.895431,-2 2,-2 1.104569,0 2,0.89543 2,2 z"
             sodipodi:ry="2"
             sodipodi:rx="2"
             sodipodi:cy="370.83008"
             sodipodi:cx="98.5"
             id="path57043"
             style="fill:none;stroke:#1e0000;stroke-width:1;stroke-miterlimit:4;stroke-opacity:1;stroke-dasharray:none;stroke-dashoffset:0;display:inline"
             sodipodi:type="arc" />
          <path
             transform="translate(-1539.7982,-2273.7741)"
             d="m 100.5,370.83008 c 0,1.10457 -0.895431,2 -2,2 -1.104569,0 -2,-0.89543 -2,-2 0,-1.10457 0.895431,-2 2,-2 1.104569,0 2,0.89543 2,2 z"
             sodipodi:ry="2"
             sodipodi:rx="2"
             sodipodi:cy="370.83008"
             sodipodi:cx="98.5"
             id="path57045"
             style="fill:none;stroke:#1e0000;stroke-width:1;stroke-miterlimit:4;stroke-opacity:1;stroke-dasharray:none;stroke-dashoffset:0;display:inline"
             sodipodi:type="arc" />
          <path
             transform="translate(-1534.3007,-2265.8882)"
             d="m 100.5,370.83008 c 0,1.10457 -0.895431,2 -2,2 -1.104569,0 -2,-0.89543 -2,-2 0,-1.10457 0.895431,-2 2,-2 1.104569,0 2,0.89543 2,2 z"
             sodipodi:ry="2"
             sodipodi:rx="2"
             sodipodi:cy="370.83008"
             sodipodi:cx="98.5"
             id="path57047"
             style="fill:none;stroke:#1e0000;stroke-width:1;stroke-miterlimit:4;stroke-opacity:1;stroke-dasharray:none;stroke-dashoffset:0;display:inline"
             sodipodi:type="arc" />
          <path
             transform="translate(-1524.7744,-2263.8731)"
             d="m 100.5,370.83008 c 0,1.10457 -0.895431,2 -2,2 -1.104569,0 -2,-0.89543 -2,-2 0,-1.10457 0.895431,-2 2,-2 1.104569,0 2,0.89543 2,2 z"
             sodipodi:ry="2"
             sodipodi:rx="2"
             sodipodi:cy="370.83008"
             sodipodi:cx="98.5"
             id="path57049"
             style="fill:none;stroke:#1e0000;stroke-width:1;stroke-miterlimit:4;stroke-opacity:1;stroke-dasharray:none;stroke-dashoffset:0;display:inline"
             sodipodi:type="arc" />
          <path
             transform="translate(-1516.0918,-2268.1294)"
             d="m 100.5,370.83008 c 0,1.10457 -0.895431,2 -2,2 -1.104569,0 -2,-0.89543 -2,-2 0,-1.10457 0.895431,-2 2,-2 1.104569,0 2,0.89543 2,2 z"
             sodipodi:ry="2"
             sodipodi:rx="2"
             sodipodi:cy="370.83008"
             sodipodi:cx="98.5"
             id="path57051"
             style="fill:none;stroke:#1e0000;stroke-width:1;stroke-miterlimit:4;stroke-opacity:1;stroke-dasharray:none;stroke-dashoffset:0;display:inline"
             sodipodi:type="arc" />
          <path
             transform="translate(-1512.0809,-2277.0055)"
             d="m 100.5,370.83008 c 0,1.10457 -0.895431,2 -2,2 -1.104569,0 -2,-0.89543 -2,-2 0,-1.10457 0.895431,-2 2,-2 1.104569,0 2,0.89543 2,2 z"
             sodipodi:ry="2"
             sodipodi:rx="2"
             sodipodi:cy="370.83008"
             sodipodi:cx="98.5"
             id="path57053"
             style="fill:none;stroke:#1e0000;stroke-width:1;stroke-miterlimit:4;stroke-opacity:1;stroke-dasharray:none;stroke-dashoffset:0;display:inline"
             sodipodi:type="arc" />
          <path
             transform="translate(-1513.5162,-2286.6567)"
             d="m 100.5,370.83008 c 0,1.10457 -0.895431,2 -2,2 -1.104569,0 -2,-0.89543 -2,-2 0,-1.10457 0.895431,-2 2,-2 1.104569,0 2,0.89543 2,2 z"
             sodipodi:ry="2"
             sodipodi:rx="2"
             sodipodi:cy="370.83008"
             sodipodi:cx="98.5"
             id="path57055"
             style="fill:none;stroke:#1e0000;stroke-width:1;stroke-miterlimit:4;stroke-opacity:1;stroke-dasharray:none;stroke-dashoffset:0;display:inline"
             sodipodi:type="arc" />
          <path
             transform="translate(-1520.3169,-2293.5902)"
             d="m 100.5,370.83008 c 0,1.10457 -0.895431,2 -2,2 -1.104569,0 -2,-0.89543 -2,-2 0,-1.10457 0.895431,-2 2,-2 1.104569,0 2,0.89543 2,2 z"
             sodipodi:ry="2"
             sodipodi:rx="2"
             sodipodi:cy="370.83008"
             sodipodi:cx="98.5"
             id="path57057"
             style="fill:none;stroke:#1e0000;stroke-width:1;stroke-miterlimit:4;stroke-opacity:1;stroke-dasharray:none;stroke-dashoffset:0;display:inline"
             sodipodi:type="arc" />
          <path
             transform="translate(-1529.9264,-2295.4713)"
             d="m 100.5,370.83008 c 0,1.10457 -0.895431,2 -2,2 -1.104569,0 -2,-0.89543 -2,-2 0,-1.10457 0.895431,-2 2,-2 1.104569,0 2,0.89543 2,2 z"
             sodipodi:ry="2"
             sodipodi:rx="2"
             sodipodi:cy="370.83008"
             sodipodi:cx="98.5"
             id="path57059"
             style="fill:none;stroke:#1e0000;stroke-width:1;stroke-miterlimit:4;stroke-opacity:1;stroke-dasharray:none;stroke-dashoffset:0;display:inline"
             sodipodi:type="arc" />
          <path
             transform="translate(-1539.4043,-2292.9353)"
             d="m 100.5,370.83008 c 0,1.10457 -0.895431,2 -2,2 -1.104569,0 -2,-0.89543 -2,-2 0,-1.10457 0.895431,-2 2,-2 1.104569,0 2,0.89543 2,2 z"
             sodipodi:ry="2"
             sodipodi:rx="2"
             sodipodi:cy="370.83008"
             sodipodi:cx="98.5"
             id="path57061"
             style="fill:none;stroke:#1e0000;stroke-width:1;stroke-miterlimit:4;stroke-opacity:1;stroke-dasharray:none;stroke-dashoffset:0;display:inline"
             sodipodi:type="arc" />
          <path
             transform="translate(-1546.8017,-2286.4912)"
             d="m 100.5,370.83008 c 0,1.10457 -0.895431,2 -2,2 -1.104569,0 -2,-0.89543 -2,-2 0,-1.10457 0.895431,-2 2,-2 1.104569,0 2,0.89543 2,2 z"
             sodipodi:ry="2"
             sodipodi:rx="2"
             sodipodi:cy="370.83008"
             sodipodi:cx="98.5"
             id="path57063"
             style="fill:none;stroke:#1e0000;stroke-width:1;stroke-miterlimit:4;stroke-opacity:1;stroke-dasharray:none;stroke-dashoffset:0;display:inline"
             sodipodi:type="arc" />
          <path
             transform="translate(-1550.5611,-2277.4385)"
             d="m 100.5,370.83008 c 0,1.10457 -0.895431,2 -2,2 -1.104569,0 -2,-0.89543 -2,-2 0,-1.10457 0.895431,-2 2,-2 1.104569,0 2,0.89543 2,2 z"
             sodipodi:ry="2"
             sodipodi:rx="2"
             sodipodi:cy="370.83008"
             sodipodi:cx="98.5"
             id="path57065"
             style="fill:none;stroke:#1e0000;stroke-width:1;stroke-miterlimit:4;stroke-opacity:1;stroke-dasharray:none;stroke-dashoffset:0;display:inline"
             sodipodi:type="arc" />
          <path
             transform="translate(-1550.0759,-2267.6279)"
             d="m 100.5,370.83008 c 0,1.10457 -0.895431,2 -2,2 -1.104569,0 -2,-0.89543 -2,-2 0,-1.10457 0.895431,-2 2,-2 1.104569,0 2,0.89543 2,2 z"
             sodipodi:ry="2"
             sodipodi:rx="2"
             sodipodi:cy="370.83008"
             sodipodi:cx="98.5"
             id="path57067"
             style="fill:none;stroke:#1e0000;stroke-width:1;stroke-miterlimit:4;stroke-opacity:1;stroke-dasharray:none;stroke-dashoffset:0;display:inline"
             sodipodi:type="arc" />
          <path
             transform="translate(-1545.5567,-2258.9084)"
             d="m 100.5,370.83008 c 0,1.10457 -0.895431,2 -2,2 -1.104569,0 -2,-0.89543 -2,-2 0,-1.10457 0.895431,-2 2,-2 1.104569,0 2,0.89543 2,2 z"
             sodipodi:ry="2"
             sodipodi:rx="2"
             sodipodi:cy="370.83008"
             sodipodi:cx="98.5"
             id="path57069"
             style="fill:none;stroke:#1e0000;stroke-width:1;stroke-miterlimit:4;stroke-opacity:1;stroke-dasharray:none;stroke-dashoffset:0;display:inline"
             sodipodi:type="arc" />
          <path
             transform="translate(-1537.9244,-2252.7123)"
             d="m 100.5,370.83008 c 0,1.10457 -0.895431,2 -2,2 -1.104569,0 -2,-0.89543 -2,-2 0,-1.10457 0.895431,-2 2,-2 1.104569,0 2,0.89543 2,2 z"
             sodipodi:ry="2"
             sodipodi:rx="2"
             sodipodi:cy="370.83008"
             sodipodi:cx="98.5"
             id="path57071"
             style="fill:none;stroke:#1e0000;stroke-width:1;stroke-miterlimit:4;stroke-opacity:1;stroke-dasharray:none;stroke-dashoffset:0;display:inline"
             sodipodi:type="arc" />
          <path
             transform="translate(-1528.5299,-2249.7828)"
             d="m 100.5,370.83008 c 0,1.10457 -0.895431,2 -2,2 -1.104569,0 -2,-0.89543 -2,-2 0,-1.10457 0.895431,-2 2,-2 1.104569,0 2,0.89543 2,2 z"
             sodipodi:ry="2"
             sodipodi:rx="2"
             sodipodi:cy="370.83008"
             sodipodi:cx="98.5"
             id="path57073"
             style="fill:none;stroke:#1e0000;stroke-width:1;stroke-miterlimit:4;stroke-opacity:1;stroke-dasharray:none;stroke-dashoffset:0;display:inline"
             sodipodi:type="arc" />
          <path
             transform="translate(-1518.6986,-2250.3054)"
             d="m 100.5,370.83008 c 0,1.10457 -0.895431,2 -2,2 -1.104569,0 -2,-0.89543 -2,-2 0,-1.10457 0.895431,-2 2,-2 1.104569,0 2,0.89543 2,2 z"
             sodipodi:ry="2"
             sodipodi:rx="2"
             sodipodi:cy="370.83008"
             sodipodi:cx="98.5"
             id="path57075"
             style="fill:none;stroke:#1e0000;stroke-width:1;stroke-miterlimit:4;stroke-opacity:1;stroke-dasharray:none;stroke-dashoffset:0;display:inline"
             sodipodi:type="arc" />
          <path
             transform="translate(-1509.6106,-2254.1026)"
             d="m 100.5,370.83008 c 0,1.10457 -0.895431,2 -2,2 -1.104569,0 -2,-0.89543 -2,-2 0,-1.10457 0.895431,-2 2,-2 1.104569,0 2,0.89543 2,2 z"
             sodipodi:ry="2"
             sodipodi:rx="2"
             sodipodi:cy="370.83008"
             sodipodi:cx="98.5"
             id="path57077"
             style="fill:none;stroke:#1e0000;stroke-width:1;stroke-miterlimit:4;stroke-opacity:1;stroke-dasharray:none;stroke-dashoffset:0;display:inline"
             sodipodi:type="arc" />
          <path
             transform="translate(-1502.1466,-2260.5441)"
             d="m 100.5,370.83008 c 0,1.10457 -0.895431,2 -2,2 -1.104569,0 -2,-0.89543 -2,-2 0,-1.10457 0.895431,-2 2,-2 1.104569,0 2,0.89543 2,2 z"
             sodipodi:ry="2"
             sodipodi:rx="2"
             sodipodi:cy="370.83008"
             sodipodi:cx="98.5"
             id="path57079"
             style="fill:none;stroke:#1e0000;stroke-width:1;stroke-miterlimit:4;stroke-opacity:1;stroke-dasharray:none;stroke-dashoffset:0;display:inline"
             sodipodi:type="arc" />
          <path
             transform="translate(-1496.8778,-2268.8802)"
             d="m 100.5,370.83008 c 0,1.10457 -0.895431,2 -2,2 -1.104569,0 -2,-0.89543 -2,-2 0,-1.10457 0.895431,-2 2,-2 1.104569,0 2,0.89543 2,2 z"
             sodipodi:ry="2"
             sodipodi:rx="2"
             sodipodi:cy="370.83008"
             sodipodi:cx="98.5"
             id="path57081"
             style="fill:none;stroke:#1e0000;stroke-width:1;stroke-miterlimit:4;stroke-opacity:1;stroke-dasharray:none;stroke-dashoffset:0;display:inline"
             sodipodi:type="arc" />
          <path
             transform="translate(-1494.3002,-2278.393)"
             d="m 100.5,370.83008 c 0,1.10457 -0.895431,2 -2,2 -1.104569,0 -2,-0.89543 -2,-2 0,-1.10457 0.895431,-2 2,-2 1.104569,0 2,0.89543 2,2 z"
             sodipodi:ry="2"
             sodipodi:rx="2"
             sodipodi:cy="370.83008"
             sodipodi:cx="98.5"
             id="path57083"
             style="fill:none;stroke:#1e0000;stroke-width:1;stroke-miterlimit:4;stroke-opacity:1;stroke-dasharray:none;stroke-dashoffset:0;display:inline"
             sodipodi:type="arc" />
          <path
             transform="translate(-1494.5565,-2288.2556)"
             d="m 100.5,370.83008 c 0,1.10457 -0.895431,2 -2,2 -1.104569,0 -2,-0.89543 -2,-2 0,-1.10457 0.895431,-2 2,-2 1.104569,0 2,0.89543 2,2 z"
             sodipodi:ry="2"
             sodipodi:rx="2"
             sodipodi:cy="370.83008"
             sodipodi:cx="98.5"
             id="path57085"
             style="fill:none;stroke:#1e0000;stroke-width:1;stroke-miterlimit:4;stroke-opacity:1;stroke-dasharray:none;stroke-dashoffset:0;display:inline"
             sodipodi:type="arc" />
          <path
             transform="translate(-1497.3724,-2297.7151)"
             d="m 100.5,370.83008 c 0,1.10457 -0.895431,2 -2,2 -1.104569,0 -2,-0.89543 -2,-2 0,-1.10457 0.895431,-2 2,-2 1.104569,0 2,0.89543 2,2 z"
             sodipodi:ry="2"
             sodipodi:rx="2"
             sodipodi:cy="370.83008"
             sodipodi:cx="98.5"
             id="path57087"
             style="fill:none;stroke:#1e0000;stroke-width:1;stroke-miterlimit:4;stroke-opacity:1;stroke-dasharray:none;stroke-dashoffset:0;display:inline"
             sodipodi:type="arc" />
          <path
             transform="translate(-1502.448,-2306.1794)"
             d="m 100.5,370.83008 c 0,1.10457 -0.895431,2 -2,2 -1.104569,0 -2,-0.89543 -2,-2 0,-1.10457 0.895431,-2 2,-2 1.104569,0 2,0.89543 2,2 z"
             sodipodi:ry="2"
             sodipodi:rx="2"
             sodipodi:cy="370.83008"
             sodipodi:cx="98.5"
             id="path57089"
             style="fill:none;stroke:#1e0000;stroke-width:1;stroke-miterlimit:4;stroke-opacity:1;stroke-dasharray:none;stroke-dashoffset:0;display:inline"
             sodipodi:type="arc" />
          <path
             transform="translate(-1509.5288,-2313.0512)"
             d="m 100.5,370.83008 c 0,1.10457 -0.895431,2 -2,2 -1.104569,0 -2,-0.89543 -2,-2 0,-1.10457 0.895431,-2 2,-2 1.104569,0 2,0.89543 2,2 z"
             sodipodi:ry="2"
             sodipodi:rx="2"
             sodipodi:cy="370.83008"
             sodipodi:cx="98.5"
             id="path57091"
             style="fill:none;stroke:#1e0000;stroke-width:1;stroke-miterlimit:4;stroke-opacity:1;stroke-dasharray:none;stroke-dashoffset:0;display:inline"
             sodipodi:type="arc" />
          <path
             transform="translate(-1518.1644,-2317.82)"
             d="m 100.5,370.83008 c 0,1.10457 -0.895431,2 -2,2 -1.104569,0 -2,-0.89543 -2,-2 0,-1.10457 0.895431,-2 2,-2 1.104569,0 2,0.89543 2,2 z"
             sodipodi:ry="2"
             sodipodi:rx="2"
             sodipodi:cy="370.83008"
             sodipodi:cx="98.5"
             id="path57093"
             style="fill:none;stroke:#1e0000;stroke-width:1;stroke-miterlimit:4;stroke-opacity:1;stroke-dasharray:none;stroke-dashoffset:0;display:inline"
             sodipodi:type="arc" />
          <path
             transform="translate(-1527.7376,-2320.2232)"
             d="m 100.5,370.83008 c 0,1.10457 -0.895431,2 -2,2 -1.104569,0 -2,-0.89543 -2,-2 0,-1.10457 0.895431,-2 2,-2 1.104569,0 2,0.89543 2,2 z"
             sodipodi:ry="2"
             sodipodi:rx="2"
             sodipodi:cy="370.83008"
             sodipodi:cx="98.5"
             id="path57095"
             style="fill:none;stroke:#1e0000;stroke-width:1;stroke-miterlimit:4;stroke-opacity:1;stroke-dasharray:none;stroke-dashoffset:0;display:inline"
             sodipodi:type="arc" />
          <path
             transform="translate(-1537.6109,-2320.3684)"
             d="m 100.5,370.83008 c 0,1.10457 -0.895431,2 -2,2 -1.104569,0 -2,-0.89543 -2,-2 0,-1.10457 0.895431,-2 2,-2 1.104569,0 2,0.89543 2,2 z"
             sodipodi:ry="2"
             sodipodi:rx="2"
             sodipodi:cy="370.83008"
             sodipodi:cx="98.5"
             id="path57097"
             style="fill:none;stroke:#1e0000;stroke-width:1;stroke-miterlimit:4;stroke-opacity:1;stroke-dasharray:none;stroke-dashoffset:0;display:inline"
             sodipodi:type="arc" />
          <path
             transform="translate(-1547.2526,-2318.2449)"
             d="m 100.5,370.83008 c 0,1.10457 -0.895431,2 -2,2 -1.104569,0 -2,-0.89543 -2,-2 0,-1.10457 0.895431,-2 2,-2 1.104569,0 2,0.89543 2,2 z"
             sodipodi:ry="2"
             sodipodi:rx="2"
             sodipodi:cy="370.83008"
             sodipodi:cx="98.5"
             id="path57099"
             style="fill:none;stroke:#1e0000;stroke-width:1;stroke-miterlimit:4;stroke-opacity:1;stroke-dasharray:none;stroke-dashoffset:0;display:inline"
             sodipodi:type="arc" />
          <path
             transform="translate(-1556.1714,-2314.0068)"
             d="m 100.5,370.83008 c 0,1.10457 -0.895431,2 -2,2 -1.104569,0 -2,-0.89543 -2,-2 0,-1.10457 0.895431,-2 2,-2 1.104569,0 2,0.89543 2,2 z"
             sodipodi:ry="2"
             sodipodi:rx="2"
             sodipodi:cy="370.83008"
             sodipodi:cx="98.5"
             id="path57101"
             style="fill:none;stroke:#1e0000;stroke-width:1;stroke-miterlimit:4;stroke-opacity:1;stroke-dasharray:none;stroke-dashoffset:0;display:inline"
             sodipodi:type="arc" />
          <path
             transform="translate(-1563.9707,-2307.9463)"
             d="m 100.5,370.83008 c 0,1.10457 -0.895431,2 -2,2 -1.104569,0 -2,-0.89543 -2,-2 0,-1.10457 0.895431,-2 2,-2 1.104569,0 2,0.89543 2,2 z"
             sodipodi:ry="2"
             sodipodi:rx="2"
             sodipodi:cy="370.83008"
             sodipodi:cx="98.5"
             id="path57103"
             style="fill:none;stroke:#1e0000;stroke-width:1;stroke-miterlimit:4;stroke-opacity:1;stroke-dasharray:none;stroke-dashoffset:0;display:inline"
             sodipodi:type="arc" />
          <path
             transform="translate(-1570.346,-2300.4007)"
             d="m 100.5,370.83008 c 0,1.10457 -0.895431,2 -2,2 -1.104569,0 -2,-0.89543 -2,-2 0,-1.10457 0.895431,-2 2,-2 1.104569,0 2,0.89543 2,2 z"
             sodipodi:ry="2"
             sodipodi:rx="2"
             sodipodi:cy="370.83008"
             sodipodi:cx="98.5"
             id="path57105"
             style="fill:none;stroke:#1e0000;stroke-width:1;stroke-miterlimit:4;stroke-opacity:1;stroke-dasharray:none;stroke-dashoffset:0;display:inline"
             sodipodi:type="arc" />
          <path
             transform="translate(-1575.0469,-2291.7133)"
             d="m 100.5,370.83008 c 0,1.10457 -0.895431,2 -2,2 -1.104569,0 -2,-0.89543 -2,-2 0,-1.10457 0.895431,-2 2,-2 1.104569,0 2,0.89543 2,2 z"
             sodipodi:ry="2"
             sodipodi:rx="2"
             sodipodi:cy="370.83008"
             sodipodi:cx="98.5"
             id="path57107"
             style="fill:none;stroke:#1e0000;stroke-width:1;stroke-miterlimit:4;stroke-opacity:1;stroke-dasharray:none;stroke-dashoffset:0;display:inline"
             sodipodi:type="arc" />
          <path
             transform="translate(-1578.3176,-2272.3534)"
             d="m 100.5,370.83008 c 0,1.10457 -0.895431,2 -2,2 -1.104569,0 -2,-0.89543 -2,-2 0,-1.10457 0.895431,-2 2,-2 1.104569,0 2,0.89543 2,2 z"
             sodipodi:ry="2"
             sodipodi:rx="2"
             sodipodi:cy="370.83008"
             sodipodi:cx="98.5"
             id="path57109"
             style="fill:none;stroke:#1e0000;stroke-width:1;stroke-miterlimit:4;stroke-opacity:1;stroke-dasharray:none;stroke-dashoffset:0;display:inline"
             sodipodi:type="arc" />
          <path
             sodipodi:type="arc"
             style="fill:none;stroke:#000000;stroke-width:1;stroke-miterlimit:4;stroke-opacity:1;stroke-dasharray:none;stroke-dashoffset:0;display:inline"
             id="path57111"
             sodipodi:cx="98.5"
             sodipodi:cy="370.83008"
             sodipodi:rx="2"
             sodipodi:ry="2"
             d="m 100.5,370.83008 c 0,1.10457 -0.895431,2 -2,2 -1.104569,0 -2,-0.89543 -2,-2 0,-1.10457 0.895431,-2 2,-2 1.104569,0 2,0.89543 2,2 z"
             transform="translate(-1576.8978,-2262.7515)" />
          <path
             d="m -1383.184,-1149.6864 -0.027,-0.3252 c 0.6014,-0.021 1.1387,-0.052 1.6118,-0.09 0.4809,-0.039 0.9568,-0.092 1.4276,-0.1588 l 0.027,0.3253 c -0.4826,0.067 -0.7699,0.1327 -0.862,0.1956 -0.092,0.063 -0.1323,0.1656 -0.1207,0.3076 0.01,0.055 0.06,0.3423 0.1658,0.8615 0.274,1.3586 0.6766,3.1969 1.2077,5.5147 1.5018,-2.9844 2.4913,-5.0518 2.9686,-6.202 0.1193,-0.2876 0.1738,-0.4945 0.1635,-0.6207 -0.01,-0.095 -0.068,-0.166 -0.1813,-0.2143 -0.1131,-0.048 -0.3833,-0.065 -0.8107,-0.05 l -0.027,-0.3253 c 0.6567,-0.026 1.0875,-0.047 1.2925,-0.064 0.2681,-0.022 0.6198,-0.065 1.0551,-0.1282 l 0.027,0.3253 c -0.1439,0.035 -0.2534,0.08 -0.3283,0.134 -0.075,0.054 -0.1454,0.1389 -0.2113,0.2554 l -0.7823,1.6416 -1.2116,2.4329 c -0.4401,0.8774 -1.111,2.2559 -2.0127,4.1355 l -0.5854,0.048 c -0.246,-1.2102 -0.817,-3.6994 -1.713,-7.4676 -0.061,-0.257 -0.1276,-0.4073 -0.2006,-0.451 -0.073,-0.044 -0.3639,-0.07 -0.8727,-0.08 z"
             style="font-size:14px;font-style:italic;font-variant:normal;font-weight:normal;font-stretch:normal;text-indent:0;text-align:start;text-decoration:none;line-height:125%;letter-spacing:0px;word-spacing:0px;text-transform:none;direction:ltr;block-progression:tb;writing-mode:lr-tb;text-anchor:start;baseline-shift:baseline;color:#000000;fill:#000000;fill-opacity:1;fill-rule:nonzero;stroke:none;stroke-width:1px;marker:none;visibility:visible;display:inline;overflow:visible;enable-background:accumulate;font-family:Book Antiqua;-inkscape-font-specification:Book Antiqua Italic"
             id="path5288-5-4"
             inkscape:connector-curvature="0" />
          <path
             d="m -1374.6759,-1142.2573 0.016,-0.3168 c 0.3076,-0.1205 0.4867,-0.2115 0.5372,-0.2732 0.051,-0.062 0.085,-0.1707 0.1042,-0.327 0.093,-0.7101 0.2085,-1.9846 0.3476,-3.8236 0.1391,-1.839 0.2002,-2.861 0.1834,-3.066 -0.014,-0.1655 -0.081,-0.2671 -0.2035,-0.3047 -0.078,-0.025 -0.3719,-0.035 -0.8834,-0.029 l 0.021,-0.3292 c 0.5585,-0.014 0.9599,-0.031 1.2043,-0.051 0.1774,-0.014 0.5903,-0.061 1.2389,-0.1371 l 0.7204,-0.071 c 0.8161,-0.067 1.4108,0.023 1.7843,0.2705 0.3698,0.2515 0.5756,0.6315 0.6172,1.1401 0.04,0.4849 -0.097,0.9485 -0.4099,1.3909 -0.313,0.4423 -0.837,0.8285 -1.572,1.1586 0.7256,0.04 1.2326,0.149 1.5211,0.3279 0.3761,0.231 0.5877,0.6344 0.6349,1.21 0.056,0.6859 -0.1957,1.3178 -0.7556,1.8953 -0.6586,0.6811 -1.4018,1.0555 -2.2297,1.1233 -0.138,0.011 -0.4008,0.024 -0.7884,0.041 -0.3718,0.015 -0.676,0.032 -0.9125,0.051 -0.272,0.022 -0.6636,0.063 -1.1749,0.1197 z m 1.9244,-4.7772 c 0.2615,-0.01 0.4553,-0.014 0.5815,-0.024 0.7293,-0.06 1.2858,-0.3027 1.6696,-0.729 0.3838,-0.4264 0.5498,-0.9549 0.4982,-1.5857 -0.033,-0.4021 -0.1876,-0.7029 -0.4639,-0.9025 -0.2763,-0.1996 -0.6805,-0.2776 -1.2127,-0.2341 -0.1971,0.016 -0.4463,0.051 -0.7476,0.103 -0.1275,0.7209 -0.2359,1.845 -0.3251,3.3722 z m -0.2915,4.0719 c 0.4966,0.055 0.8966,0.07 1.2002,0.045 0.7687,-0.063 1.3069,-0.3124 1.6145,-0.7484 0.3075,-0.4359 0.4353,-0.9713 0.3834,-1.6059 -0.041,-0.5047 -0.2254,-0.8745 -0.5523,-1.1097 -0.3268,-0.2352 -0.8332,-0.3247 -1.5192,-0.2685 -0.2365,0.019 -0.5271,0.057 -0.8717,0.1132 -0.091,1.0234 -0.1758,2.215 -0.2549,3.5748 z"
             style="font-size:14px;font-style:italic;font-variant:normal;font-weight:normal;font-stretch:normal;text-indent:0;text-align:start;text-decoration:none;line-height:125%;letter-spacing:0px;word-spacing:0px;text-transform:none;direction:ltr;block-progression:tb;writing-mode:lr-tb;text-anchor:start;baseline-shift:baseline;color:#000000;fill:#000000;fill-opacity:1;fill-rule:nonzero;stroke:none;stroke-width:1px;marker:none;visibility:visible;display:inline;overflow:visible;enable-background:accumulate;font-family:Book Antiqua;-inkscape-font-specification:Book Antiqua Italic"
             id="path5290-2-0"
             inkscape:connector-curvature="0" />
        </g>
      </g>
    </g>
  </g>
</svg>
